# xmcd
#
# Track frame offsets:
# 150
# 13055
# 23217
# 37217
# 56637
# 69080
# 87145
# 101432
# 118755
# 134790
#
# Disc length: 2022 seconds
#
#
# Revision: 1
# Processed by: cddbd v1.5.1PL2 Copyright (c) Steve Scherf et al.
# Submitted via: FreeRIP 2.60 
#
DISCID=8707e40a
DTITLE=Lyle Lovett - Lyle Lovett
DYEAR=1986
DGENRE=Country
TTITLE0=Cowboy Man
TTITLE1=God Will
TTITLE2=Further Down The Line
TTITLE3=This Old Porch
TTITLE4=Why I Don't Know
TTITLE5=If I Were The Man You Wanted
TTITLE6=You Can't Resist It
TTITLE7=The Waltzing Fool
TTITLE8=An Acceptable Level Of Ecstacy
TTITLE9=Closing Time
EXTD=Curb-MCA Records 471794 2
EXTT0=
EXTT1=
EXTT2=
EXTT3=
EXTT4=
EXTT5=
EXTT6=
EXTT7=
EXTT8=
EXTT9=
PLAYORDER=
